# AST/ASF file generated using VICON BodyLanguage
# -----------------------------------------------
:version 1.10
:name VICON
:units
  mass 1.0
  length 0.45
  angle deg
:documentation
   .ast/.asf automatically generated from VICON data using
   VICON BodyBuilder and BodyLanguage model FoxedUp or BRILLIANT.MOD
:root
   order TX TY TZ RX RY RZ
   axis XYZ
   position 0 0 0  
   orientation 0 0 0 
:bonedata
  begin
     id 1 
     name lhipjoint
     direction 0.635376 -0.686425 0.353719 
     length 2.47244 
     axis 0 0 0  XYZ
  end
  begin
     id 2 
     name lfemur
     direction 0.34202 -0.939693 0  
     length 7.25268  
     axis 0 0 20  XYZ
    dof rx ry rz
    limits (-160.0 20.0)
           (-70.0 70.0)
           (-60.0 70.0)
  end
  begin
     id 3 
     name ltibia
     direction 0.34202 -0.939693 0   
     length 7.6767   
     axis 0 0 20   XYZ
    dof rx
    limits (-10.0 170.0)
  end
  begin
     id 4 
     name lfoot
     direction 0.0803374 -0.220725 0.972022   
     length 2.22945   
     axis -90 7.62852e-016 20   XYZ
    dof rx rz
    limits (-45.0 90.0)
           (-70.0 20.0)
  end
  begin
     id 5 
     name ltoes
     direction 1.53579e-011 -4.21994e-011 1   
     length 1.11848   
     axis -90 7.62852e-016 20   XYZ
    dof rx
    limits (-90.0 20.0)
  end
  begin
     id 6 
     name rhipjoint
     direction -0.664428 -0.664335 0.342336   
     length 2.55466  
     axis 0 0 0  XYZ 
  end
  begin
     id 7 
     name rfemur
     direction -0.34202 -0.939693 0   
     length 6.83172   
     axis 0 0 -20   XYZ
    dof rx ry rz
    limits (-160.0 20.0)
           (-70.0 70.0)
           (-70.0 60.0)
  end
  begin
     id 8 
     name rtibia
     direction -0.34202 -0.939693 0   
     length 7.62692   
     axis 0 0 -20   XYZ
    dof rx
    limits (-10.0 170.0)
 end
 begin
     id 9 
     name rfoot
     direction -0.0949276 -0.260811 0.960711   
     length 2.19684  
     axis -90 -7.62852e-016 -20   XYZ
    dof rx rz
    limits (-45.0 90.0)
           (-20.0 70.0)
  end
  begin
     id 10 
     name rtoes
     direction -1.53543e-011 -4.2183e-011 1   
     length 1.09848   
     axis -90 -7.62852e-016 -20   XYZ
    dof rx
    limits (-90.0 20.0)
  end
  begin
     id 11 
     name lowerback
     direction 0.0118782 0.999815 -0.0151555   
     length 2.15772   
     axis 0 0 0   XYZ
    dof rx ry rz
    limits (-20.0 45.0)
           (-30.0 30.0)
           (-30.0 30.0)
  end
  begin
     id 12 
     name upperback
     direction 0.00130825 0.999065 0.0432113   
     length 2.14863   
     axis 0 0 0   XYZ
    dof rx ry rz
    limits (-20.0 45.0)
           (-30.0 30.0)
           (-30.0 30.0)
  end
  begin
     id 13 
     name thorax
     direction -0.00347005 0.998773 0.0494011   
     length 2.14936   
     axis 0 0 0   XYZ
    dof rx ry rz
    limits (-20.0 45.0)
           (-30.0 30.0)
           (-30.0 30.0)
  end
  begin
     id 14 
     name lowerneck
     direction -0.0262159 0.99424 0.103921   
     length 1.69373   
     axis 0 0 0   XYZ
    dof rx ry rz
    limits (-20.0 45.0)
           (-30.0 30.0)
           (-30.0 30.0)
  end
  begin
     id 15 
     name upperneck
     direction 0.0353511 0.977394 -0.20845   
     length 1.70857   
     axis 0 0 0   XYZ
    dof rx ry rz
    limits (-20.0 45.0)
           (-30.0 30.0)
           (-30.0 30.0)
  end
  begin
     id 16
     name head
     direction 0.0139214 0.996594 -0.0812836  
     length 1.72777  
     axis 0 0 0   XYZ
    dof rx ry rz
    limits (-20.0 45.0)
           (-30.0 30.0)
           (-30.0 30.0)
  end
  begin
     id 17 
     name lclavicle
     direction 0.841247 0.537205 -0.0609508  
     length 3.55371  
     axis 0 0 0   XYZ
    dof ry rz
    limits (-20.0 10.0)
           (0.0 20.0)
  end
  begin
     id 18 
     name lhumerus
     direction 1 -4.48964e-011 1.60116e-018   
     length 4.91377   
     axis -180 -30 -90   XYZ
    dof rx ry rz
    limits (-60.0 90.0)
           (-90.0 90.0)
           (-90.0 90.0)
  end
  begin
     id 19
     name lradius
     direction 1 -4.48989e-011 -8.93847e-027   
     length 3.00291   
     axis -180 -30 -90   XYZ
    dof rx
    limits (-10.0 170.0)
  end
  begin
     id 20
     name lwrist
     direction 1 -4.48932e-011 -7.31504e-027   
     length 1.50145   
     axis 5.74121e-015 90 90   XYZ
    dof ry
    limits (-180.0 0.0)
 end
  begin
     id 21 
     name lhand
     direction 1 -4.48971e-011 -1.46301e-026   
     length 0.450922   
     axis 9.33524e-015 90 90   XYZ
    dof rx rz
    limits (-90.0 90.0)
           (-45.0 45.0)
  end
  begin
     id 22 
     name lfingers
     direction 1 -4.49039e-011 -2.92602e-026   
     length 0.363545   
     axis 1.86705e-014 90 90   XYZ
    dof rx
    limits (0.0 90.0)
  end
  begin
     id 23
     name lthumb
     direction 0.707107 -6.34941e-011 0.707107   
     length 0.52198   
     axis -90 45 2.85299e-015   XYZ
    dof rx rz
    limits (-45.0 45.0)
           (-45.0 45.0)
  end
  begin
     id 24 
     name rclavicle
     direction -0.825079 0.56158 -0.0622297   
     length 3.39909  
     axis 0 0 0   XYZ 
    dof ry rz
    limits (-10.0 20.0)
           (-20.0 0.0)
  end
  begin
     id 25 
     name rhumerus
     direction -1 -4.48965e-011 1.61691e-027  
     length 4.86725   
     axis -180 30 90   XYZ
    dof rx ry rz
    limits (-90.0 60.0)
           (-90.0 90.0)
           (-90.0 90.0)
  end
  begin
     id 26 
     name rradius
     direction -1 -4.48964e-011 -2.25776e-027   
     length 3.17144   
     axis -180 30 90   XYZ
    dof rx
    limits (-10.0 170.0)
  end
  begin
     id 27 
     name rwrist
     direction -1 -4.48961e-011 -7.31504e-027   
     length 1.58572   
     axis 5.74121e-015 -90 -90   XYZ
    dof ry
    limits (-180.0 0.0)
  end
  begin
     id 28
     name rhand
     direction -1 -4.49013e-011 -1.46301e-026   
     length 0.419368   
     axis 9.33524e-015 -90 -90   XYZ
    dof rx rz
    limits (-90.0 90.0)
           (-45.0 45.0)
  end
  begin
     id 29
     name rfingers
     direction -1 -4.489e-011 -2.92602e-026   
     length 0.338105   
     axis 1.86705e-014 -90 -90   XYZ
    dof rx
    limits (0.0 90.0)
  end
  begin
     id 30
     name rthumb
     direction -0.707107 -6.35022e-011 0.707107   
     length 0.485453   
     axis -90 -45 -2.85299e-015   XYZ
    dof rx rz
    limits (-45.0 45.0)
           (-45.0 45.0)
  end
:hierarchy
  begin
    root lhipjoint rhipjoint lowerback
    lhipjoint lfemur
    lfemur ltibia
    ltibia lfoot
    lfoot ltoes
    rhipjoint rfemur
    rfemur rtibia
    rtibia rfoot
    rfoot rtoes
    lowerback upperback
    upperback thorax
    thorax lowerneck lclavicle rclavicle
    lowerneck upperneck
    upperneck head
    lclavicle lhumerus
    lhumerus lradius
    lradius lwrist
    lwrist lhand lthumb
    lhand lfingers
    rclavicle rhumerus
    rhumerus rradius
    rradius rwrist
    rwrist rhand rthumb
    rhand rfingers
  end

#!OML:ASF H:\Swim 2\Project 1\Capture day 1\Session 1\male.ASF
:FULLY-SPECIFIED
:DEGREES
115
root 7.87457 9.80974 12.3199 97.5398 -2.71808 -0.549902
lowerback -3.83232 1.75188 4.21876
upperback -4.73754 2.26813 -1.95467
thorax -2.50403 0.994629 -4.34792
lowerneck -23.1487 1.47291 -0.848522
upperneck 38.4358 0.476923 4.83124
head 18.3305 0.735436 2.5175
rclavicle -7.95139e-016 -1.44616e-014
rhumerus 85.5028 -29.6475 -18.2094
rradius 42.0235
rwrist 4.46732
rhand -22.4794 2.08183
rfingers 7.12502
rthumb 3.94588 -27.8614
lclavicle -7.95139e-016 -1.44616e-014
lhumerus 28.6081 2.87153 -5.3606
lradius 48.7298
lwrist 24.5897
lhand -32.2827 -9.26559
lfingers 7.12502
lthumb -5.52166 20.6425
rfemur -33.0908 7.86102 16.6829
rtibia 17.9496
rfoot 19.6208 -12.4733
rtoes 2.98521
lfemur -21.4522 -1.88039 -26.4569
ltibia 32.5676
lfoot 7.04031 7.63711
ltoes 9.58936
116
root 7.87685 9.81157 12.3181 97.4199 -2.71163 -0.546392
lowerback -3.81037 1.77595 4.22652
upperback -4.74711 2.3044 -1.80694
thorax -2.52763 1.01438 -4.19867
lowerneck -23.4598 1.56751 -0.680732
upperneck 38.3228 0.560186 4.78112
head 18.3448 0.78649 2.48307
rclavicle 0 -1.50082e-014
rhumerus 85.2375 -29.2705 -17.8193
rradius 42.3234
rwrist 4.74262
rhand -22.7555 2.49682
rfingers 7.12502
rthumb 3.67924 -27.4512
lclavicle 0 -1.50082e-014
lhumerus 26.0649 0.114246 -4.78759
lradius 50.2551
lwrist 26.6374
lhand -32.4744 -9.78756
lfingers 7.12502
lthumb -5.70682 20.1156
rfemur -32.9291 7.63556 16.9144
rtibia 18.4217
rfoot 19.5808 -12.4817
rtoes 3.189
lfemur -21.7774 -1.55989 -26.5144
ltibia 33.4366
lfoot 7.10015 7.02125
ltoes 10.0675
117
root 7.87852 9.81313 12.3136 97.3252 -2.66283 -0.517663
lowerback -3.80303 1.78274 4.29724
upperback -4.75885 2.31553 -1.65582
thorax -2.54625 1.01954 -4.0817
lowerneck -23.7039 1.68247 -0.536427
upperneck 38.0453 0.677135 4.75795
head 18.245 0.851905 2.46323
rclavicle -2.38542e-014 7.30534e-015
rhumerus 85.0333 -28.9095 -17.488
rradius 42.5805
rwrist 4.96986
rhand -22.9609 2.8782
rfingers 7.12502
rthumb 3.48084 -27.0731
lclavicle -2.38542e-014 7.30534e-015
lhumerus 23.4627 -2.63212 -4.051
lradius 51.7517
lwrist 28.659
lhand -32.6718 -10.461
lfingers 7.12502
lthumb -5.89735 19.4369
rfemur -32.7004 7.4894 17.1546
rtibia 18.9481
rfoot 19.5255 -12.3738
rtoes 3.38609
lfemur -22.2523 -1.29309 -26.504
ltibia 34.3692
lfoot 7.12347 6.35014
ltoes 10.6433
118
root 7.88003 9.81434 12.3063 97.26 -2.56748 -0.462894
lowerback -3.81343 1.77428 4.44128
upperback -4.77297 2.30393 -1.50271
thorax -2.55763 1.01104 -4.00403
lowerneck -23.8772 1.81268 -0.433547
upperneck 37.5999 0.817561 4.78926
head 18.0311 0.929182 2.47157
rclavicle 1.35174e-014 1.03865e-014
rhumerus 84.9094 -28.5672 -17.2438
rradius 42.7787
rwrist 5.23649
rhand -23.0907 3.24362
rfingers 7.12502
rthumb 3.3555 -26.7097
lclavicle 1.35174e-014 1.03865e-014
lhumerus 20.7969 -5.32261 -3.11474
lradius 53.176
lwrist 30.4667
lhand -32.8395 -11.1873
lfingers 7.12502
lthumb -6.0593 18.706
rfemur -32.3982 7.41081 17.4083
rtibia 19.4991
rfoot 19.4752 -12.0859
rtoes 3.53785
lfemur -22.8725 -1.09133 -26.422
ltibia 35.3326
lfoot 7.09786 5.66204
ltoes 11.2669
119
root 7.88141 9.81514 12.296 97.2209 -2.42158 -0.388007
lowerback -3.83657 1.75289 4.66521
upperback -4.78696 2.27263 -1.34864
thorax -2.56146 0.990225 -3.97036
lowerneck -24.0122 1.95258 -0.369394
upperneck 37.0413 0.970742 4.87557
head 17.7471 1.01455 2.50836
rclavicle -1.59028e-014 -1.58531e-014
rhumerus 84.8835 -28.2418 -17.1129
rradius 42.9047
rwrist 5.61781
rhand -23.1713 3.59358
rfingers 7.12502
rthumb 3.27767 -26.361
lclavicle -1.59028e-014 -1.58531e-014
lhumerus 18.0527 -7.92875 -1.97129
lradius 54.4913
lwrist 31.9069
lhand -32.9838 -11.8664
lfingers 7.12502
lthumb -6.19859 18.023
rfemur -32.0196 7.38121 17.6891
rtibia 20.0629
rfoot 19.4588 -11.5862
rtoes 3.64385
lfemur -23.6168 -0.961965 -26.2635
ltibia 36.2829
lfoot 7.02319 5.01763
ltoes 11.918
120
root 7.88269 9.81518 12.2836 97.274 -2.23063 -0.330986
lowerback -3.94323 1.73529 4.95296
upperback -4.8171 2.24117 -1.19612
thorax -2.53372 0.967944 -3.97181
lowerneck -24.1527 2.09669 -0.337156
upperneck 36.451 1.12594 5.01069
head 17.4523 1.10369 2.57156
rclavicle -2.38542e-014 -2.25621e-014
rhumerus 84.9622 -27.9298 -17.1153
rradius 42.955
rwrist 6.17318
rhand -23.2208 3.95813
rfingers 7.12502
rthumb 3.22988 -25.9972
lclavicle -2.38542e-014 -2.25621e-014
lhumerus 15.2111 -10.4211 -0.605448
lradius 55.6693
lwrist 32.8452
lhand -33.1254 -12.4484
lfingers 7.12502
lthumb -6.33524 17.4368
rfemur -31.6468 7.38429 17.9999
rtibia 20.6384
rfoot 19.5213 -10.8638
rtoes 3.69907
lfemur -24.5327 -0.892226 -26.0334
ltibia 37.1689
lfoot 6.89838 4.47994
ltoes 12.518
121
root 7.88359 9.81497 12.2689 97.3305 -2.00789 -0.273458
lowerback -4.03277 1.71084 5.29568
upperback -4.84181 2.19917 -1.0497
thorax -2.50965 0.938463 -4.01124
lowerneck -24.3017 2.24715 -0.330358
upperneck 35.8484 1.28505 5.19041
head 17.1583 1.19779 2.65881
rclavicle -8.74653e-015 -3.47873e-016
rhumerus 85.1376 -27.6369 -17.2507
rradius 42.9291
rwrist 6.9038
rhand -23.2729 4.33151
rfingers 7.12502
rthumb 3.17955 -25.6245
lclavicle -8.74653e-015 -3.47873e-016
lhumerus 12.255 -12.7653 0.998436
lradius 56.6903
lwrist 33.2116
lhand -33.3377 -12.9383
lfingers 7.12502
lthumb -6.54024 16.9407
rfemur -31.1922 7.39342 18.3442
rtibia 21.234
rfoot 19.654 -9.97261
rtoes 3.76812
lfemur -25.499 -0.905417 -25.7435
ltibia 37.9352
lfoot 6.7199 4.10995
ltoes 12.9736
122
root 7.88384 9.81471 12.2526 97.4066 -1.77076 -0.227124
lowerback -4.08705 1.71577 5.71611
upperback -4.95281 2.19855 -0.971129
thorax -2.58704 0.92159 -4.16674
lowerneck -24.3285 2.38871 -0.26954
upperneck 35.4238 1.38413 5.4201
head 16.9368 1.28111 2.75091
rclavicle -9.54166e-015 -1.78906e-015
rhumerus 85.2107 -27.2647 -17.4315
rradius 42.83
rwrist 7.76511
rhand -23.3626 4.70896
rfingers 7.12502
rthumb 3.09296 -25.2484
lclavicle -9.54166e-015 -1.78906e-015
lhumerus 9.27087 -15.1372 2.74361
lradius 57.593
lwrist 33.0782
lhand -33.6883 -13.3907
lfingers 7.12502
lthumb -6.87864 16.4776
rfemur -30.6902 7.40977 18.7049
rtibia 21.8592
rfoot 19.87 -8.96281
rtoes 3.83679
lfemur -26.5081 -0.993034 -25.4088
ltibia 38.5299
lfoot 6.58817 3.88165
ltoes 13.8041
123
root 7.88329 9.81457 12.2356 97.475 -1.53424 -0.190424
lowerback -4.07202 1.79358 6.1429
upperback -5.17191 2.30439 -0.968125
thorax -2.80155 0.949897 -4.40623
lowerneck -24.2081 2.47989 -0.0846211
upperneck 35.2638 1.3463 5.65807
head 16.8293 1.32557 2.80555
rclavicle -2.22639e-014 3.27995e-015
rhumerus 84.9931 -26.82 -17.4852
rradius 42.6713
rwrist 8.67389
rhand -23.5135 5.07444
rfingers 7.12502
rthumb 2.94724 -24.8849
lclavicle -2.22639e-014 3.27995e-015
lhumerus 6.38398 -17.6021 4.64513
lradius 58.3918
lwrist 32.5518
lhand -34.2445 -13.8898
lfingers 7.12502
lthumb -7.41553 15.9603
rfemur -30.1223 7.41195 19.0765
rtibia 22.5182
rfoot 20.1557 -7.873
rtoes 3.88719
lfemur -27.5065 -1.1552 -25.0427
ltibia 38.9096
lfoot 6.4811 3.82891
ltoes 14.8337
124
root 7.88198 9.8146 12.2186 97.5363 -1.32074 -0.1578
lowerback -3.98927 1.97084 6.51935
upperback -5.50523 2.55579 -1.05168
thorax -3.15331 1.04355 -4.7099
lowerneck -23.9534 2.48997 0.279832
upperneck 35.3997 1.11866 5.86132
head 16.8574 1.3117 2.78645
rclavicle -2.38542e-015 3.77691e-015
rhumerus 84.3681 -26.3381 -17.2953
rradius 42.4673
rwrist 9.50287
rhand -23.7267 5.41597
rfingers 7.12502
rthumb 2.74135 -24.5462
lclavicle -2.38542e-015 3.77691e-015
lhumerus 3.67917 -20.2245 6.66625
lradius 59.1244
lwrist 31.8204
lhand -35.0289 -14.5142
lfingers 7.12502
lthumb -8.17264 15.3077
rfemur -29.4919 7.3904 19.4345
rtibia 23.1977
rfoot 20.5397 -6.74992
rtoes 4.07394
lfemur -28.4726 -1.39819 -24.6647
ltibia 39.0401
lfoot 6.42504 3.94846
ltoes 16.2564
125
root 7.88013 9.81482 12.2029 97.5954 -1.13737 -0.130283
lowerback -3.84948 2.26401 6.8014
upperback -5.93057 2.97569 -1.21545
thorax -3.60911 1.21691 -5.04801
lowerneck -23.6098 2.39209 0.827083
upperneck 35.7645 0.669798 6.01256
head 16.9987 1.22811 2.67747
rclavicle -4.53229e-014 -1.82882e-014
rhumerus 83.3001 -25.871 -16.8006
rradius 42.227
rwrist 10.1719
rhand -24.0019 5.71561
rfingers 7.12502
rthumb 2.47556 -24.2498
lclavicle -4.53229e-014 -1.82882e-014
lhumerus 1.21706 -23.0283 8.77043
lradius 59.8256
lwrist 31.0848
lhand -36.0088 -15.3027
lfingers 7.12502
lthumb -9.1183 14.4802
rfemur -28.7984 7.33589 19.7709
rtibia 23.8687
rfoot 21.0075 -5.63755
rtoes 4.41686
lfemur -29.3905 -1.7281 -24.2779
ltibia 38.8977
lfoot 6.38232 4.27173
ltoes 17.9253
